<?xml version="1.0" encoding="UTF-8"?>
<svg id="Layer_1" xmlns="http://www.w3.org/2000/svg" viewBox="0 0 240 276.96">
  <defs>
    <style>
      .cls-1 {
        fill: #811f88;
      }

      .cls-2 {
        fill: #891e8c;
      }

      .cls-3 {
        fill: #7e1f78;
      }

      .cls-4 {
        fill: #7d1d7d;
      }

      .cls-5 {
        fill: #7f1f74;
      }

      .cls-6 {
        fill: #771c77;
      }

      .cls-7 {
        fill: #8e1e8f;
      }

      .cls-8 {
        fill: #671c67;
      }

      .cls-9 {
        fill: #fff;
      }

      .cls-10 {
        fill: #841e60;
      }

      .cls-11 {
        fill: #7c2086;
      }

      .cls-12 {
        fill: #8c1e8e;
      }

      .cls-13 {
        fill: #731c73;
      }

      .cls-14 {
        fill: #ba35cc;
      }

      .cls-15 {
        fill: #782083;
      }

      .cls-16 {
        fill: #6d1c6d;
      }

      .cls-17 {
        fill: #7a2085;
      }

      .cls-18 {
        fill: #891e89;
      }

      .cls-19 {
        fill: #831d83;
      }

      .cls-20 {
        fill: #811d81;
      }

      .cls-21 {
        fill: #831e67;
      }

      .cls-22 {
        fill: #ea4a2e;
      }

      .cls-23 {
        fill: #831e6c;
      }

      .cls-24 {
        fill: #95341f;
      }

      .cls-25 {
        fill: #851f8a;
      }

      .cls-26 {
        fill: #811e71;
      }

      .cls-27 {
        fill: #7f2087;
      }

      .cls-28 {
        fill: #831f89;
      }

      .cls-29 {
        fill: #88244c;
      }

      .cls-30 {
        fill: #851d85;
      }

      .cls-31 {
        fill: #7b207d;
      }
    </style>
  </defs>
  <g>
    <path class="cls-27" d="M96.96,256.64c-2.23-7.66-4.85-15.24-6.61-23.01-4.95-21.78-4.05-43.3,2.76-64.72,2.59-8.14,4.44-16.92,9.83-23.28,13.96-16.46,23.42-37.12,44.06-47.53,19.38-9.77,38.96-18.51,61.31-18.32,8.44.07,17.76-.26,26.2-.41,0,2.87,0,9.38,0,12.25-3.49.13-7.64-1.11-11.06-1.53-21.59-2.63-41.1,2.52-60.51,10.85-20.76,8.92-34.47,25.51-47.11,43.4-7.51,10.64-12.66,22.1-15.57,34.88-5.54,24.26-3.71,46.85,4.98,70.19,1.79,4.8,5.06,9.1,4.21,14.85-4.16-2.54-8.33-5.08-12.49-7.62Z"/>
    <path class="cls-8" d="M36.68,53.19c-3.55,5.43-8.4,14.65-12,20.04-6.36,9.53-15.68,21.6-19.53,32.55-.03-9.49-.09-23.45-.02-32.94,0-.81.84-2.52,1.55-2.94,8.73-5.13,21.23-11.67,30-16.72Z"/>
    <path class="cls-16" d="M59.15,40.17c-2.19,6.66-8.98,13.33-13.15,18.38C30.64,77.16,13.07,101.35,5.15,124.49c-.08.23.26-5.55,0-5.38,0-5.75,0-10.9,0-16.64,3.85-10.96,11.84-20.84,18.2-30.38,3.6-5.39,7.11-11.82,10.66-17.24,7.68-4.47,17.46-10.21,25.13-14.68Z"/>
    <path class="cls-13" d="M126.43,7C80.04,29.39,42.5,65.04,19.57,111.28c-4.18,8.43-10.64,24.05-14.17,32.81-.21.52.19-6.7-.26-6.28-.01-6.23.01-12.46,0-18.69.25-.17.43-.33.51-.56,7.93-23.13,23.51-42.38,38.87-60.99,4.17-5.05,9.23-9.58,11.42-16.24,20.63-12.09,43.29-25.23,63.96-37.28,0,0,4.36,1.36,6.51,2.96Z"/>
    <path class="cls-6" d="M133.83,11.96C90.19,31.97,54.17,63.11,30.68,105.28c-10.35,18.59-19.37,44.1-22.98,65.11-.1.56-1.42.93-1.86,1.43,0-9.1-.69-24.33-.69-33.43.45-.42,2.34-1.35,2.55-1.86,3.53-8.76,6.42-17.83,10.6-26.26C41.22,64.02,78.06,29.39,124.44,7c2.52,1.61,7.03,3.52,9.39,4.96Z"/>
    <path class="cls-4" d="M12.55,209.06c-3.2-1.02-6.8-2.87-6.68-6.86.36-11.72-.35-25.23.16-36.96.45-.5,1.55-1.1,1.64-1.66,3.61-21,11.23-40.49,21.58-59.08C52.75,62.34,88.53,30.95,132.17,10.93c2.65,1.46,7.22,4.2,9.87,5.66-.94.71-4.1,2.88-5.15,3.28-12.29,4.66-24,10.7-34.6,18.26C59.24,68.81,28.51,107.27,17.32,160.17c-3.28,15.5-5.79,32.94-4.76,48.89Z"/>
    <path class="cls-20" d="M10.86,208.04c-1.02-15.95,1.84-32.72,5.12-48.22,11.19-52.9,42.4-92.03,85.46-122.72,10.6-7.55,22.17-13.78,34.46-18.43,1.05-.4,4.4-1.92,5.33-2.63,1.77,1.12,2.95,2.46,4.72,3.57-.77.15-3.37,1.88-4.09,2.17-29.55,11.77-54.11,29.3-75.45,52.85-19.38,21.39-34.07,45.75-42.77,72.77-6.34,19.69-8.82,41.98-8.17,63.19-1.11-.65-3.52-1.9-4.63-2.55Z"/>
    <path class="cls-19" d="M14.09,209.7c-.65-21.21,2.17-43.5,8.51-63.18,8.7-27.01,23.36-51.77,42.74-73.16,21.34-23.55,46.83-41.19,76.38-52.96.72-.29,2.95-1.54,3.72-1.68,1.12.64,3.74,2.81,4.85,3.45-37.81,10.2-73.62,40.98-96,72.13-11.9,16.57-21.62,33.9-27.49,53.49-6.21,20.75-8.15,42.81-8.77,64.34-.97-.6-2.99-1.83-3.96-2.43Z"/>
    <path class="cls-30" d="M152.85,23.7c-11.13,5.42-24,10.97-34.72,17.11-34.54,19.77-59.72,48.23-77.68,83.68-13.69,27.02-17.42,54.71-17.81,84.31-.02,1.5-.03,4.51.13,6.01-1.6-.96-3.85-2.11-5.45-3.06.62-21.53,2.52-43.87,8.74-64.62,5.87-19.59,15.62-37.52,27.52-54.09,22.38-31.15,57.64-61.95,95.45-72.15,1.12.61,2.71,2.2,3.83,2.81Z"/>
    <path class="cls-18" d="M151.96,23.06c1.94,1.25,5.34,2.58,7.28,3.83-10.87,4.9-24.26,10.94-34.6,16.77-46.37,26.15-77.08,64.25-90.89,115.87-5.05,18.89-8.14,38.47-6.38,58.09-1.76-.99-3.99-1.82-5.74-2.81-.16-1.5.02-4.34.04-5.84.38-29.6,4.56-58.16,18.25-85.19,17.96-35.46,42.97-63.94,77.52-83.71,10.72-6.14,23.4-11.59,34.53-17.01Z"/>
    <path class="cls-2" d="M26.81,217.74c-1.76-19.62,1.07-40.25,6.12-59.15,13.8-51.62,44.76-90.14,91.13-116.29,10.34-5.83,23.29-10.89,34.16-15.79,1.25.68,3.6,2.89,4.85,3.57-9.53,3.9-20.94,7.53-30,12.32-49.19,25.99-82.36,64.39-96.24,118.79-4.81,18.87-7.85,40.08-5.25,59.61-1.12-.64-3.65-2.42-4.77-3.06Z"/>
    <path class="cls-12" d="M29.71,219.02c-2.6-19.53,1.01-39.35,5.82-58.22,13.87-54.41,47.08-93.49,96.28-119.47,9.06-4.79,20.2-9.26,29.73-13.16,1.15.63,3.45,2.17,4.6,2.81-38.89,9.48-74.98,38.7-98.13,70.89-11.48,15.96-21.5,33.03-27.1,51.92-6.5,21.93-7.8,44.37-7.8,67.02-.48-.3-2.9-1.49-3.39-1.79Z"/>
    <path class="cls-7" d="M165.12,30.08c2.54,1.44,5.62,3.41,8.16,4.85-.56,1.06,6.86,3.56,6.13,3.7-13.23,2.51-33.65,9.74-45.45,15.83-11.89,6.13-22.74,13.35-32.79,22.21-11.07,9.76-20.66,20.4-28.88,32.61-4.93,7.31-10.73,14.32-14.28,22.29-4.31,9.67-8.06,19.49-10.34,30.26-3.18,14.99-3.84,29.77-4.72,44.94-.34,5.78,2.09,13.39-.89,19.02-2.55-1.46-7.3-4.03-9.85-5.49,0-22.65.38-45.85,6.89-67.77,5.6-18.89,15.48-36.87,26.96-52.83,23.15-32.19,60.19-60.13,99.08-69.61Z"/>
    <path class="cls-12" d="M40.51,225.79c0-6.56-.21-13.73.12-19.51.88-15.16,2.57-30.05,5.75-45.04,2.29-10.76,6.24-20.51,10.55-30.18,3.55-7.97,9-15.14,13.92-22.45,8.23-12.2,18.09-22.96,29.15-32.72,10.05-8.86,20.85-16.56,32.73-22.69,11.8-6.09,23.72-11.9,36.95-14.42.74-.14,5.95-.75,6.51-1.81,3.82,2.26,6.52,4.42,10.34,6.68-.31,3.07-5.34,2.89-7.06,3.27-34.63,7.83-63.24,25.25-86.9,51.32-12.15,13.39-22.24,28.34-29.57,45.19-9.13,20.98-11.98,41.54-12.68,63.96-.23,7.34-.29,16.14-.13,23.49-3.21-1.89-6.49-3.21-9.7-5.11Z"/>
    <path class="cls-2" d="M188.47,42.4c6.4,3.67,13.39,9.8,19.79,13.47-.46.79-5.87,1.5-6.39,1.53-16.14,1.07-31.54,4.93-46.47,11.23-19.9,8.4-36.92,20.78-51.06,36.64-13.98,15.68-25.5,32.42-32.06,53.11-6.68,21.08-9.03,40.58-7.39,62.43.41,5.49,1.79,12.87-.64,18.51-4.95-2.88-10.32-6.31-15.27-9.19-.16-7.35-.17-15.54.06-22.88.7-22.42,3.58-44.29,12.71-65.27,7.33-16.85,16.87-32.18,29.03-45.57,23.67-26.07,52.8-43.55,87.44-51.38,1.71-.39,5.4-.9,10.25-2.62Z"/>
    <path class="cls-25" d="M63.62,239.06c2.43-5.64.32-12.24-.09-17.73-1.64-21.84.67-42.89,7.35-63.97,6.56-20.69,18.05-38.09,32.03-53.77,14.15-15.86,31.54-27.92,51.44-36.32,14.92-6.3,30.17-10.44,46.31-11.51.51-.03,6.62-.13,7.08-.91,4.64,2.71,11.19,7.37,15.83,10.09-.19,2.38-9.06.54-10.72.51-27.01-.42-51.64,7.63-74.04,21.96-19.5,12.47-35.34,27.64-46.34,48.89-4.45,8.59-7.7,17.96-10.6,27.58-8,26.57-9.37,51.17-2.38,78.06.34,1.32-.73,5.5-2.6,5.55-3.47-1.94-9.81-6.49-13.28-8.43Z"/>
    <path class="cls-28" d="M75.74,245.66c1.86-.05,2-2.93,1.66-4.25-6.98-26.9-5.43-53.36,2.57-79.93,2.89-9.61,8.18-17.41,12.63-26,11-21.25,27.29-37.03,46.79-49.5,22.4-14.33,48.27-23.22,75.28-22.8,1.43.02,5.28,2.31,6.74,1.15.45-.36,1.09-.35,1.57-.03,2.98,1.99,3.56,2.05,7.29,4.33.8.49,3.02,1.82,3.82,2.31,0,0-1.91-.06-1.91-.06-5.73,0-11.39,1.38-17.11,1.44-26.91.3-50.12,8.51-72.68,22.9-9.78,6.24-17.76,14.54-26.13,22.6-8.69,8.38-12.89,19.1-19.4,28.59-11.51,16.77-12.34,35.38-13.79,55.15-1.13,15.54-1.44,30.29,3.56,44.99.2.58,2.56,5.47,1.9,6.34-2.9-1.74-9.87-5.49-12.77-7.23Z"/>
    <path class="cls-1" d="M98.34,258.98c-4.51-2.56-8-4.46-12.51-7.02.66-.87-3.63-12.44-3.83-13.02-5-14.7-4.01-22.26-2.87-37.79,1.44-19.77,3.47-39.63,14.98-56.4,6.51-9.49,10.54-20.41,19.24-28.79,8.37-8.07,16.37-16.49,26.15-22.73,22.55-14.39,47.27-22.19,74.18-22.48,5.73-.06,12.72-1.47,18.45-1.48.8.34,1.76,1.97,2.55,2.31.13.14-.12,1.14,0,1.28,0,2.4-.18,5-.18,7.4-8.44.15-17.82.84-26.26.77-22.35-.19-41.13,8.74-60.51,18.51-20.64,10.41-29.62,30.52-43.59,46.98-5.4,6.36-7.18,14.83-9.77,22.98-6.82,21.42-7.38,41.79-2.43,63.57,1.77,7.77,4.15,18.25,6.38,25.91Z"/>
    <path class="cls-11" d="M159.11,112.7c-24.09,16.06-42.36,36.85-49.53,66.03-4.77,19.39-5.11,38.52.51,57.85,3.3,11.35,8.74,22.83,14.04,33.23-5.49,3.35-10.58-2.8-15.19-3.93.85-5.76-3.09-11.23-4.88-16.02-8.69-23.33-10.51-47-4.96-71.27,2.92-12.78,7.81-24.85,15.32-35.49,12.64-17.9,26.91-34.48,47.67-43.39,19.41-8.33,39.49-14.04,61.08-11.41,3.42.42,7.69,1.61,11.13,1.92,0,2.55,0,5.74,0,8.3"/>
    <path class="cls-17" d="M123.14,269.13c-5.3-10.4-11.36-21.01-14.66-32.36-5.62-19.33-5.61-38.72-.84-58.11,7.18-29.18,25.83-50.49,49.92-66.55,21.78-14.51,46.99-18,72.97-15.43.99.1,2.5.36,3.65.23,0,2.87,0,5.68,0,8.55-20.95.6-41.02-.26-60.56,8.55-16.59,7.48-30.44,19.66-41.12,34.28-25.52,34.91-19.33,77.79-.99,116.2"/>
    <path class="cls-15" d="M234.36,104.28c0,4.47-.06,10-.06,14.47-10.41-1.03-21.21-2.54-31.6-.51-19.32,3.77-35.22,11.13-49.98,24.83-4.41,4.1-8.47,8.99-12,14.17-13.46,19.74-15.72,40.81-12.16,64.17,2.05,13.44,6.64,25.51,13.48,37.02-3.32,1.93-7.22,4.15-10.54,6.08-23.36-35.58-25.32-81.9.2-116.8,10.69-14.62,24.84-27.04,41.43-34.52,19.54-8.82,40.28-8.29,61.23-8.9Z"/>
    <path class="cls-31" d="M141.04,258.98c-6.83-11.51-13.13-24.25-15.18-37.7-3.56-23.36.47-45.02,13.93-64.76,3.53-5.18,7.3-10,11.72-14.1,14.76-13.7,31.54-21.39,50.86-25.16,10.38-2.03,21.58-.51,31.99.52,0,3.83,0,8.66,0,12.49-4.8-.41-10.07-1.25-14.87-1.45-22.96-.93-43.94,4.55-59.16,21.7-27.89,31.44-31.99,66.03-8.43,102.45-3.37,1.89-7.48,4.11-10.85,6Z"/>
    <path class="cls-3" d="M150.81,253.17c-23.55-36.41-19.61-72.22,8.27-103.66,15.22-17.16,37.18-22.46,60.15-21.53,4.81.2,10.15.43,14.94.84,0,2.87,0,7.08,0,9.96-23.01-3.43-44.43-2.19-63.77,13.4-18.19,14.67-29.42,45.2-24,67.47,2.53,10.38,7.35,19.63,12.06,28.91-2.23,1.29-5.43,3.31-7.66,4.6Z"/>
    <path class="cls-5" d="M234.23,145.04c-9.93-.39-20.18-2.46-30.45-1.47-25.3,2.46-47.43,28.93-50.68,52.32-2.44,17.55-2.3,29.79,8.36,44.19.33.44,3.23,4.54,3.32,5.16-1.91,1.12-5.11,3.03-7.02,4.15-4.71-9.28-9.78-19.24-12.31-29.63-5.42-22.27,6.08-53.59,24.27-68.25,19.34-15.59,41.63-17.15,64.64-13.72,0,2.08-.13,5.16-.13,7.24Z"/>
    <path class="cls-26" d="M234.36,152.51c-8.62-.64-17.99-1.99-26.55-1.53-35.77,1.9-59.81,44.95-43.72,77.43,2.12,4.27,4.56,8.95,6.83,13.15-2.24,1.32-4.65,2.83-6.89,4.15-.08-.62-9.48-14.85-9.64-15.38-4.1-14.15-5.21-17.44-2.78-35,3.25-23.4,26.88-50.17,52.18-52.62,10.26-1,20.64.99,30.57,1.39,0,2.56,0,5.87,0,8.43Z"/>
    <path class="cls-23" d="M234.08,164.7c-8.38.25-17.1-2.59-25.63-2.49-21.01.24-43.54,30.97-37.04,50.74,2.58,7.85,4.23,16.13,8.45,23.17-3.21,1.85-6.3,3.95-9.51,5.81-2.27-4.2-5.11-9.04-7.22-13.31-16.09-32.48,8.87-76.78,44.64-78.68,8.56-.46,18.13,1.23,26.76,1.87-.08,3.82-.35,9.07-.43,12.89Z"/>
    <path class="cls-21" d="M234.49,163.3c.08,5.44-.08,15.34,0,20.78-1.31.12-4.27-2.89-5.23-3.41-14.36-7.83-31.21-4.05-39.57,10.23-7.63,13.02-6.43,25.6,5.23,36.87-4.65,2.7-10.48,6.1-15.13,8.81-4.66-6.64-8.22-15.21-9.99-23.28-4.57-20.88,17.57-51.85,38.58-52.09,8.54-.1,17.94,1.2,26.11,2.1Z"/>
    <path class="cls-10" d="M193.83,228.4c-11.66-11.27-12.67-25.42-5.04-38.43,8.37-14.28,26.58-18.08,40.92-10.22,4.37,2.39,3.08,1.94,4.36,3.85.03,7.74-.1,11.6,0,19.34.03,2.34-2.57,2.85-4.02,3.54-.18-.25-.35-.79-.38-1.06-1.06-8.01-5.16-12.95-13.18-14.01-7.25-.96-12.45,1.97-15.41,8.71-3.63,8.25-.07,14.5,6.48,19.69-4.48,2.6-9.25,5.98-13.72,8.59Z"/>
    <path class="cls-29" d="M226.49,208.8c-1.84-8.66-6.4-17.06-16.32-12.25-10.09,4.9-5.7,16.79,2.43,21.19-1.31.76-3.8,2.3-5.11,3.06-6.55-5.19-10.48-12.59-6.85-20.84,2.97-6.75,8.57-9.86,15.82-8.9,8.02,1.06,12.46,6.08,13.52,14.08.04.27.05,1.11.24,1.36-1.08.65-2.64,1.64-3.72,2.29Z"/>
    <path class="cls-24" d="M227.62,208.14c-5.48,3.2-10.95,6.4-16.43,9.61-8.13-4.4-11.83-16.92-1.73-21.81,9.92-4.81,16.32,3.54,18.16,12.2Z"/>
    <path class="cls-14" d="M119.98,276.47h0C83.09,254.62,34.13,225.15.85,205.4h0c1.25-38.68.26-97.67.17-136.38h0C39.24,47.05,81.98,22.27,120.19.29h0c38.62,22.22,80.59,46.47,119.12,68.86h0c.09,44.55.09,93.31,0,137.85h0M202.05,53.5,228.45,69.26,120.47,5.3h0c-20.66,12.04-42.8,25.01-63.43,37.1-7.68,4.47-15.35,8.94-23.03,13.42-8.77,5.05-18.9,11.25-27.63,16.38h0c-.07,9.49-.06,20.18-.03,29.67,0,5.75,0,11.5,0,17.24.01,6.23.03,12.46.04,18.68,0,9.1,0,18.2,0,27.3-.03,11.73-.13,26.38-.2,38.13h0c1.11.65,7.12,4.93,8.23,5.58.97.6,1.94,1.19,2.9,1.79,1.6.96,3.2,1.92,4.8,2.88,1.76.99,3.51,1.97,5.27,2.96,1.12.64,2.24,1.28,3.36,1.92.48.3.97.59,1.45.89,2.55,1.46,5.09,2.92,7.64,4.38,3.21,1.89,6.43,3.79,9.64,5.68,4.95,2.88,9.9,5.76,14.85,8.64,3.47,1.94,6.94,3.87,10.4,5.81,2.9,1.74,5.8,3.49,8.71,5.23,4.51,2.56,9.02,5.11,13.52,7.67,4.16,2.54,18.86,11.06,23.03,13.59h0c1.9-1.11,6.78-3.83,8.68-4.93l1.94-1.46.07.03c3.32-1.93,6.65-3.86,9.97-5.78,3.37-1.89,6.75-3.79,10.12-5.68,2.23-1.29,4.45-2.58,6.68-3.87,1.91-1.12,3.82-2.24,5.73-3.36,2.24-1.32,4.48-2.63,6.72-3.95,3.21-1.85,6.42-3.71,9.62-5.56,4.65-2.7,9.3-5.41,13.95-8.11,4.48-2.6,8.95-5.2,13.42-7.8,1.31-.76,2.62-1.52,3.93-2.28,5.48-3.2,10.95-6.4,16.43-9.61,1.08-.65,5.31-3.1,6.39-3.75h0c-.1-7.74-.01-16.88-.04-24.62-.08-5.44-.15-10.88-.23-16.32.08-3.82.16-7.64.23-11.46,0-2.56,0-5.11,0-7.67,0-2.08,0-4.15,0-6.23,0-2.87,0-5.75,0-8.62,0-3.83,0-7.66,0-11.5,0-4.47,0-8.94,0-13.41,0-2.87,0-5.75,0-8.62,0-2.55,0-5.11,0-7.66,0-2.87,0-5.75,0-8.62,0-2.4,0-4.8.01-7.21"/>
  </g>
  <g>
    <path class="cls-9" d="M0,276.96V0h240v276.96H0ZM.66,207.46c39.77,23,79.54,45.99,119.34,69,39.93-23.09,79.7-46.09,119.3-68.99V69.27C199.49,46.25,159.72,23.26,120,.29,80.02,23.4,40.31,46.36.66,69.29v138.17Z"/>
    <path class="cls-9" d="M95.68,153.91h-3.85v-31.54h3.64v10.03c2.76-.68,5.28-1.76,7.83-1.83,4.29-.12,6.93,2.49,7.1,6.77.21,5.4.05,10.82.05,16.48h-3.78c0-4.71,0-9.31,0-13.92,0-3.16-.75-5.9-4.56-6.04-3.77-.13-6.19,1.81-6.37,5.63-.22,4.69-.05,9.39-.05,14.4Z"/>
    <path class="cls-9" d="M180.08,142.47c.02-7.48,4.18-12.04,10.96-12.01,6.49.03,10.82,4.72,10.82,11.73,0,7.62-4.17,12.36-10.91,12.39-6.71.03-10.89-4.62-10.88-12.11ZM184.14,142.42c-.02,5.62,2.47,8.92,6.77,8.96,4.22.04,6.88-3.38,6.91-8.88.03-5.4-2.71-8.89-6.95-8.84-4.21.06-6.71,3.3-6.73,8.75Z"/>
    <path class="cls-9" d="M165.71,136.83c-1.14.2-2.14.37-3.3.58-1.5-3.75-4.46-4.39-7.85-3.38-1,.3-2.32.98-2.35,2.47s1.2,2.19,2.17,2.58c2.81,1.12,5.84,1.67,8.65,2.79,3.61,1.44,4.53,4.33,3.23,7.84-1.3,3.48-5.82,6.26-10.64,4.92-2.81-.78-6.45-2.49-7.88-7.37,1.1-.21,2.22-.43,3.27-.63,2.3,4.32,6.47,5.82,9.44,4.39,1.66-.8,2.45-1.57,2.39-3.22-.05-1.5-1.64-2.28-2.69-2.71-2.5-1.02-5.49-1.13-7.68-2.55-1.86-1.2-3.93-3.01-3.95-5.62s2.18-4.67,4.1-5.57c5.84-2.73,12.17.06,13.08,5.47Z"/>
    <path class="cls-9" d="M209.76,133.03c2.94-.72,5.98-2.39,8.67-2.41,3.72-.03,6.58,2.03,6.76,6.05.25,5.64.06,11.29.06,17.18h-3.8c0-4.69-.04-9.29.01-13.88.04-3.33-.78-6.05-4.72-6.08-3.93-.03-6.1,2.13-6.18,6.08-.09,4.53-.02,9.07-.02,13.86h-3.88v-22.68h3.06c.03.93.03,1.88.03,1.89Z"/>
    <path class="cls-9" d="M87.56,137.73c-1.06.17-2.12.35-3.34.54-1.44-3.7-3.94-5.69-7.85-4.14-4.71,1.87-4.48,6.15-4.25,10.18.19,3.42,1.45,6.36,5.33,6.94,4,.6,6.1-1.63,6.97-5.53,1.26.15,2.38.29,3.5.43-.44,5.17-4.51,8.59-9.72,8.44-6.21-.18-10.05-4.51-10.21-11.5-.17-7.5,3.31-12.09,9.56-12.6,5.41-.44,9.33,2.3,10,7.23Z"/>
    <path class="cls-9" d="M124.91,149.05c2.34-6.37,4.45-12.11,6.59-17.93h4c-2.96,7.76-5.81,15.24-8.7,22.82h-3.75c-2.86-7.46-5.75-15-8.75-22.82h4.11c2.09,5.76,4.19,11.57,6.5,17.93Z"/>
    <path class="cls-9" d="M21.68,150.7c1.24.49,2.07.31,3.62.15.17.94.34,1.91.5,2.85-5.34,1.78-8.21-.1-8.32-5.39-.1-4.62-.02-9.24-.02-13.99-1.4-.04-1.5-.03-2.81-.03-.05-1.72-.06-1.94-.06-3.48q1.38-.02,2.75-.03c0-1.67-.02-3.47-.02-5.31,1.25-.79,2.37-1.5,3.98-2.52,0,2.85,0,5.29,0,7.81,1.44.02,2.54,0,3.88.04,0,1.27,0,1.83.02,3.34-1.28.04-2.34.05-3.62.05,0,5.29.09,10.95.09,16.52Z"/>
    <path class="cls-9" d="M58.11,153.91h-3.74v-22.73h3.05c-.01.97.01,1.45-.01,2.81,2.36-3.75,5.71-4.45,9.31-2.19-.43,1.12-.82,2.13-1.19,3.09-5.5-.71-7.18.65-7.39,6.22-.16,4.2-.03,8.41-.03,12.79Z"/>
    <path class="cls-9" d="M175.3,153.9h-3.56v-22.77h3.56v22.77Z"/>
    <path class="cls-9" d="M139.3,131.1h3.53v22.76h-3.53v-22.76Z"/>
    <path class="cls-9" d="M175.29,126.44h-3.55v-4.07h3.55v4.07Z"/>
    <path class="cls-9" d="M139.32,126.59v-4.22h3.52v4.06c-1.12.05-2.17.1-3.52.16Z"/>
  </g>
  <g>
    <path class="cls-22" d="M38.31,127.35c0,3.03.03,4.12.03,4.12-1.8,2.01-4.06,4.3-5.87,6.3-2.63,2.9-3.38,6.3-1.69,9.91,1.5,3.2,3.88,5.65,7.69,5.64,4,.27,7.11-1.67,8.81-5.21,1.52-3.17.99-7.78-1.53-10.62,0,0,1.43-1.27,2.26-1.96,0,0,.47.56.9,1.11,2.92,3.71,3.39,10.11.95,13.75-3.18,4.74-8.43,6.69-13.51,5.68-.39-.08-.77-.19-1.16-.29-3.1-.84-5.48-3.09-7.1-5.65-2.12-5.37-1.75-10.37,2.25-14.8"/>
    <circle class="cls-22" cx="43.4" cy="133.17" r="1.69"/>
  </g>
</svg>